<?xml version="1.0" encoding="utf-8"?>
<!-- Generator: $$$/GeneralStr/196=Adobe Illustrator 27.6.0, SVG Export Plug-In . SVG Version: 6.00 Build 0)  -->
<svg version="1.1" id="Capa_1" xmlns="http://www.w3.org/2000/svg" xmlns:xlink="http://www.w3.org/1999/xlink" x="0px" y="0px"
	 viewBox="0 0 595.28 841.89" style="enable-background:new 0 0 595.28 841.89;" xml:space="preserve">
<style type="text/css">
	.st0{fill:#AFAFAF;}
	.st1{fill:#4D4C4C;}
	.st2{fill:#FDCF82;}
	.st3{fill:#4A494A;}
	.st4{fill:#7F7F80;}
	.st5{fill:#5C92CD;}
	.st6{fill:#CFAC7A;}
	.st7{fill:#CDC8C2;}
	.st8{fill:#2F0E10;}
	.st9{fill:#FFF072;}
	.st10{fill:none;}
	.st11{fill:#1B0807;}
	.st12{fill:#FFED00;}
</style>
<rect x="234.32" y="626.04" class="st0" width="37.02" height="29.36"/>
<rect x="297.13" y="626.04" class="st0" width="37.02" height="29.36"/>
<ellipse class="st1" cx="285.55" cy="298.43" rx="50.38" ry="15.32"/>
<g>
	<g id="XMLID_00000080193247042241677290000007348997057813753763_">
		<g>
			<path class="st2" d="M225.63,461.74v10.98c0,6.6-5.4,12-12,12h-5.1c-6.6,0-12-5.4-12-12v-10.98H225.63z"/>
			<path class="st3" d="M225.63,318.51v139.66h-11.84c-9.51-44.47-4.6-89.91-0.65-135.34c0-4.95-0.68-10.58-1.48-16.32h1.97
				C220.23,306.51,225.63,311.91,225.63,318.51z"/>
			<path class="st4" d="M213.79,458.17h-17.26V318.51c0-6.6,5.4-12,12-12h3.13c0.8,5.74,1.48,11.37,1.48,16.32
				C209.19,368.26,204.28,413.7,213.79,458.17z"/>
		</g>
		<g>
		</g>
	</g>
</g>
<g>
	<g id="XMLID_00000052782846733645844540000012867380759319972265_">
		<g>
			<path class="st2" d="M342.49,460.12v10.98c0,6.6,5.4,12,12,12h5.1c6.6,0,12-5.4,12-12v-10.98H342.49z"/>
			<path class="st3" d="M342.49,316.89v139.66h11.84c9.51-44.47,4.6-89.91,0.65-135.34c0-4.95,0.68-10.58,1.48-16.32h-1.97
				C347.89,304.89,342.49,310.29,342.49,316.89z"/>
			<path class="st4" d="M354.33,456.55h17.26V316.89c0-6.6-5.4-12-12-12h-3.13c-0.8,5.74-1.48,11.37-1.48,16.32
				C358.93,366.64,363.84,412.08,354.33,456.55z"/>
		</g>
		<g>
		</g>
	</g>
</g>
<path class="st5" d="M269.81,641.49h-31.91c-6.6,0-12-5.4-12-12V465.06c0-6.6,5.4-12,12-12h31.91c6.6,0,12,5.4,12,12v164.43
	C281.81,636.09,276.41,641.49,269.81,641.49z"/>
<path class="st5" d="M332.11,641.74h-31.91c-6.6,0-12-5.4-12-12V465.32c0-6.6,5.4-12,12-12h31.91c6.6,0,12,5.4,12,12v164.43
	C344.11,636.34,338.71,641.74,332.11,641.74z"/>
<g>
	<g id="XMLID_00000142144912888822138640000010902199374342655142_">
		<g>
			<path class="st2" d="M339.45,229.25c0,16.42-10.29,30.84-25.81,39.07v-0.18v-13.37h-59.49v13.79
				c-15.78-8.18-26.28-22.72-26.28-39.31c0-1.48,0.09-2.94,0.26-4.39v-23.03c-0.98,0.21-1.98,0.32-3.02,0.32
				c-7.62,0-13.79-5.73-13.79-12.8c0-7.08,6.17-12.81,13.79-12.81c1.04,0,2.04,0.12,3.02,0.32v-42.89c2.23-3.76,8.36-7.08,12-9.76
				h87.06c6.6,0,12,4.39,12,9.76v42.72c0.66-0.09,1.32-0.15,2-0.15c7.62,0,13.79,5.73,13.79,12.81c0,7.07-6.17,12.8-13.79,12.8
				c-0.68,0-1.34-0.06-2-0.15v22.86C339.35,226.31,339.45,227.77,339.45,229.25z"/>
			<path class="st2" d="M313.64,268.32v27.55h-40.57c3.26-6.46,8-11.29,13.55-15.15h0.01h3.16c5.67,0,10.44-3.24,11.68-7.56
				C305.79,271.95,309.87,270.32,313.64,268.32z"/>
			<path class="st2" d="M313.64,254.77v13.37c-1.77,0.66-3.55,1.32-5.33,2c-0.48,0.19-0.96,0.37-1.45,0.56
				c-5.78,2.23-11.51,4.67-16.71,7.76c-0.32,0.19-0.64,0.38-0.95,0.58c-0.87,0.53-1.73,1.09-2.57,1.68h-0.01h-6.79
				c-5.39,0-9.97-2.92-11.47-6.91c-5.07-1.2-9.84-2.98-14.21-5.25v-13.79H313.64z"/>
			<path class="st2" d="M308.31,270.14c-0.48,0.19-0.97,0.37-1.45,0.56C307.35,270.51,307.83,270.33,308.31,270.14z"/>
			<path class="st2" d="M290.15,278.46c5.2-3.09,10.93-5.53,16.71-7.76c0.48-0.19,0.97-0.37,1.45-0.56c1.78-0.68,3.56-1.34,5.33-2
				v0.18c-3.77,2-7.85,3.63-12.17,4.84c-1.24,4.32-6.01,7.56-11.68,7.56h-3.16c0.84-0.59,1.7-1.15,2.57-1.68
				C289.51,278.84,289.83,278.65,290.15,278.46z"/>
			<path class="st2" d="M290.15,278.46c-0.32,0.19-0.64,0.38-0.95,0.58C289.51,278.84,289.83,278.65,290.15,278.46z"/>
			<path class="st6" d="M279.83,280.72h6.79c-5.55,3.86-10.29,8.69-13.55,15.15h-18.92v-27.31c4.37,2.27,9.14,4.05,14.21,5.25
				C269.86,277.8,274.44,280.72,279.83,280.72z"/>
		</g>
		<g>
		</g>
	</g>
	<rect x="343.4" y="197.36" class="st7" width="2.04" height="9.06"/>
</g>
<path d="M265.39,234.6c1.42,9.67,9.73,17.11,19.8,17.11c10.07,0,18.38-7.43,19.8-17.11H265.39z"/>
<ellipse cx="257.13" cy="177.7" rx="8.34" ry="8.43"/>
<ellipse cx="309.38" cy="177.7" rx="8.34" ry="8.43"/>
<path d="M267.66,174.37l3.51-4.06c-4.25-1.59-9.58-2.22-15.26-1.5c-5.71,0.72-10.75,2.67-14.47,5.29l4.43,3.07
	c2.06-2.46,5.89-4.4,10.46-4.98C260.88,171.62,265.06,172.53,267.66,174.37z"/>
<path d="M299.69,174.54l-3.51-4.06c4.25-1.59,9.58-2.22,15.26-1.5c5.71,0.72,10.75,2.67,14.47,5.29l-4.43,3.07
	c-2.06-2.46-5.89-4.4-10.46-4.98C306.47,171.79,302.29,172.7,299.69,174.54z"/>
<path class="st8" d="M232.53,127.15c-3.69,0.6-6.64,13.4-6.64,29.11s2.95,28.51,6.64,29.11V127.15z"/>
<path class="st8" d="M335.04,124.42c3.69,0.59,6.64,13.33,6.64,28.96s-2.95,28.37-6.64,28.96V124.42z"/>
<path class="st9" d="M226.02,133.62c-2.22,6.83,13.69,18.25,13.69,18.25s7.05-6.08,2.9-11.87c-4.15-5.79,7.47,1.34,7.47,1.34
	s2.63,5.34,0,5.94c-2.63,0.59,7.05,1.93,6.77-1.78s3.04-6.38,3.04-6.38s11.47,8.61,8.16,10.98s12.72-4.45,13-7.72s2.21-9.5,2.21-9.5
	s8.02,2.97,4.7,8.01c-3.32,5.04,10.78,8.9,12.44,0.89s13.27-9.2,12.44-2.97c-0.83,6.23,3.59,6.83,3.59,6.83s6.64-1.78,4.15-7.42
	c-2.49-5.64,10.78-11.57,10.78-0.89s-0.83,11.28-0.83,11.28s1.38,2.48,5.25-5.64s6.08-10.68,6.08-10.68s1.11-14.84-13.55-18.4
	s-64.98-6.53-69.95-3.26S233.21,111.51,226.02,133.62z"/>
<path class="st4" d="M343.85,475.53H224.36c-6.6,0-12-5.4-12-12V316.72c0-12.78,10.46-23.23,23.23-23.23h97.02
	c12.78,0,23.23,10.46,23.23,23.23v146.81C355.85,470.13,350.45,475.53,343.85,475.53z"/>
<line class="st10" x1="180.19" y1="300.81" x2="180.53" y2="455.36"/>
<path class="st11" d="M329.19,708.98h-26.3c-6.6,0-12-5.4-12-12v-31.4c0-6.6,5.4-12,12-12h26.3c6.6,0,12,5.4,12,12v31.4
	C341.19,703.58,335.79,708.98,329.19,708.98z"/>
<rect x="226.23" y="719.62" class="st11" width="52.6" height="7.32"/>
<rect x="289.85" y="719.77" class="st11" width="52.6" height="7.32"/>
<ellipse class="st11" cx="252.51" cy="710.77" rx="26.81" ry="15.32"/>
<rect x="228.21" y="715.36" class="st11" width="3.66" height="6.47"/>
<rect x="271.02" y="714.34" class="st11" width="6.21" height="8.43"/>
<ellipse class="st11" cx="316.04" cy="712.02" rx="26.81" ry="15.32"/>
<rect x="291.74" y="716.62" class="st11" width="3.66" height="6.47"/>
<rect x="334.55" y="715.6" class="st11" width="6.21" height="8.43"/>
<g>
	<path class="st11" d="M266.02,708.3h-26.3c-6.6,0-12-5.4-12-12v-31.4c0-6.6,5.4-12,12-12h26.3c6.6,0,12,5.4,12,12v31.4
		C278.02,702.9,272.62,708.3,266.02,708.3z"/>
	<rect x="236.05" y="662.68" class="st12" width="33.64" height="1.94"/>
	<rect x="236.05" y="665.74" class="st12" width="33.64" height="1.94"/>
	<rect x="236.05" y="669.06" class="st12" width="33.64" height="1.94"/>
	<rect x="236.05" y="673.34" class="st12" width="33.64" height="1.94"/>
	<rect x="236.05" y="677.25" class="st12" width="33.64" height="1.94"/>
	<rect x="236.05" y="682.83" class="st12" width="33.64" height="1.94"/>
	<rect x="236.05" y="688.61" class="st12" width="33.64" height="1.94"/>
</g>
<rect x="299.22" y="663.02" class="st12" width="33.64" height="1.94"/>
<rect x="299.22" y="666.08" class="st12" width="33.64" height="1.94"/>
<rect x="299.22" y="669.4" class="st12" width="33.64" height="1.94"/>
<rect x="299.22" y="673.68" class="st12" width="33.64" height="1.94"/>
<rect x="299.22" y="677.59" class="st12" width="33.64" height="1.94"/>
<rect x="299.22" y="683.17" class="st12" width="33.64" height="1.94"/>
<rect x="299.22" y="688.95" class="st12" width="33.64" height="1.94"/>
</svg>
